<svg xmlns="http://www.w3.org/2000/svg" xmlns:xlink="http://www.w3.org/1999/xlink" viewBox="3679.119 -342.432 266.284 128.325">
  <defs>
    <style>
      .cls-1, .cls-2 {
        fill: none;
      }

      .cls-1 {
        clip-rule: evenodd;
      }

      .cls-3 {
        clip-path: url(#clip-path);
      }

      .cls-4 {
        fill: #ffb300;
      }

      .cls-5 {
        clip-path: url(#clip-path-2);
      }

      .cls-6 {
        fill: #fff;
      }

      .cls-7 {
        clip-path: url(#clip-path-3);
      }

      .cls-8 {
        clip-path: url(#clip-path-4);
      }

      .cls-9 {
        clip-path: url(#clip-path-5);
      }

      .cls-10 {
        clip-path: url(#clip-path-6);
      }
    </style>
    <clipPath id="clip-path">
      <path id="Path_42" data-name="Path 42" class="cls-1" d="M118.149-114.739q0,8.08-3.622,12.858a11.818,11.818,0,0,1-9.965,4.777,11.383,11.383,0,0,1-9.531-4.393l-.386,3.752H87.561V-147h7.824V-129.1a11.345,11.345,0,0,1,9.112-3.976,11.953,11.953,0,0,1,10.013,4.713q3.638,4.714,3.638,13.178Zm-7.824-.673q0-5.643-2-8.465a6.657,6.657,0,0,0-5.8-2.822,7.267,7.267,0,0,0-7.148,4.425v14.3a7.341,7.341,0,0,0,7.212,4.521,6.608,6.608,0,0,0,5.667-2.725q2-2.726,2.061-8.241ZM140.333-97.1a16.223,16.223,0,0,1-12.058-4.665q-4.621-4.665-4.62-12.425v-.962a20.745,20.745,0,0,1,2.012-9.283,15.273,15.273,0,0,1,5.651-6.365,14.984,14.984,0,0,1,8.114-2.277q7.116,0,11,4.521t3.88,12.794v3.142H131.543a10.4,10.4,0,0,0,2.882,6.8,8.67,8.67,0,0,0,6.359,2.5,10.61,10.61,0,0,0,8.758-4.328l4.218,4.008a14.067,14.067,0,0,1-5.586,4.826A17.55,17.55,0,0,1,140.333-97.1Zm-.934-29.723a6.6,6.6,0,0,0-5.2,2.244,11.609,11.609,0,0,0-2.527,6.253h14.908v-.577a9.447,9.447,0,0,0-2.093-5.916A6.552,6.552,0,0,0,139.4-126.828Zm31.07-14.044v8.433h6.15v5.771h-6.15V-107.3a4.252,4.252,0,0,0,.789,2.87,3.667,3.667,0,0,0,2.817.882,12.1,12.1,0,0,0,2.737-.321v6.028a19.344,19.344,0,0,1-5.152.737q-9.015,0-9.015-9.908v-19.655h-5.731v-5.771h5.731v-8.433ZM203.7-97.745a12,12,0,0,1-.9-3.239,12.2,12.2,0,0,1-9.144,3.88,12.322,12.322,0,0,1-8.565-2.982,9.523,9.523,0,0,1-3.316-7.375,9.838,9.838,0,0,1,4.137-8.513q4.138-2.966,11.833-2.966h4.8v-2.277a6.062,6.062,0,0,0-1.513-4.313,6.013,6.013,0,0,0-4.6-1.619,6.912,6.912,0,0,0-4.379,1.331,4.113,4.113,0,0,0-1.706,3.383h-7.824a8.625,8.625,0,0,1,1.9-5.339,12.649,12.649,0,0,1,5.168-3.9,18.218,18.218,0,0,1,7.293-1.411q6.118,0,9.756,3.062a10.9,10.9,0,0,1,3.735,8.609v15.647a17.669,17.669,0,0,0,1.32,7.471v.545Zm-8.6-5.611a8.93,8.93,0,0,0,4.363-1.122,7.516,7.516,0,0,0,3.075-3.014v-6.541H198.32q-4.347,0-6.536,1.507a4.876,4.876,0,0,0-2.19,4.265,4.544,4.544,0,0,0,1.5,3.575A5.813,5.813,0,0,0,195.1-103.356Z" transform="translate(-87.561 146.996)"/>
    </clipPath>
    <clipPath id="clip-path-2">
      <path id="Path_44" data-name="Path 44" class="cls-2" d="M86.446-152,26-119.166,86.446-86.333,135.9-113.2v37.814h10.99v-43.778Z" transform="translate(-26 152)"/>
    </clipPath>
    <clipPath id="clip-path-3">
      <path id="Path_46" data-name="Path 46" class="cls-2" d="M87.685-127.741v21.889L54.715-87.958v-21.889Z" transform="translate(-54.715 127.741)"/>
    </clipPath>
    <clipPath id="clip-path-4">
      <path id="Path_48" data-name="Path 48" class="cls-2" d="M68.542-109.847v21.889l-32.97-17.894v-21.889Z" transform="translate(-35.572 127.741)"/>
    </clipPath>
    <clipPath id="clip-path-5">
      <path id="Path_50" data-name="Path 50" class="cls-2" d="M87.685-113.443v21.889L54.715-73.66V-95.549Z" transform="translate(-54.715 113.443)"/>
    </clipPath>
    <clipPath id="clip-path-6">
      <path id="Path_52" data-name="Path 52" class="cls-2" d="M68.542-95.549V-73.66L35.572-91.554v-21.889Z" transform="translate(-35.572 113.443)"/>
    </clipPath>
  </defs>
  <g id="MonPlan_Single_Logo" data-name="MonPlan Single Logo" transform="translate(3679.119 -342.432)">
    <g id="Group_32" data-name="Group 32" class="cls-3" transform="translate(142.163 3.555)">
      <path id="Path_41" data-name="Path 41" class="cls-4" d="M82.561-79.14H229.646V-152H82.561Z" transform="translate(-94.043 140.514)"/>
    </g>
    <g id="Group_55" data-name="Group 55">
      <g id="logo">
        <g id="Group_33" data-name="Group 33" class="cls-5">
          <path id="Path_43" data-name="Path 43" class="cls-6" d="M21-57.424H164.856V-157H21Z" transform="translate(-32.482 145.518)"/>
        </g>
        <g id="Group_34" data-name="Group 34" class="cls-7" transform="translate(65.941 55.708)">
          <path id="Path_45" data-name="Path 45" class="cls-6" d="M49.715-69.994h55.935v-62.748H49.715Z" transform="translate(-61.197 121.259)"/>
        </g>
        <g id="Group_35" data-name="Group 35" class="cls-8" transform="translate(21.98 55.708)">
          <path id="Path_47" data-name="Path 47" class="cls-6" d="M30.572-69.994H86.506v-62.748H30.572Z" transform="translate(-42.054 121.259)"/>
        </g>
        <g id="Group_36" data-name="Group 36" class="cls-9" transform="translate(65.941 88.542)">
          <path id="Path_49" data-name="Path 49" class="cls-6" d="M49.715-55.7h55.935v-62.748H49.715Z" transform="translate(-61.197 106.961)"/>
        </g>
        <g id="Group_37" data-name="Group 37" class="cls-10" transform="translate(21.98 88.542)">
          <path id="Path_51" data-name="Path 51" class="cls-6" d="M30.572-55.7H86.506v-62.748H30.572Z" transform="translate(-42.054 106.961)"/>
        </g>
      </g>
    </g>
  </g>
</svg>
