<svg xmlns="http://www.w3.org/2000/svg" xmlns:xlink="http://www.w3.org/1999/xlink" viewBox="2793.119 -342.432 120.892 128.325">
  <defs>
    <style>
      .cls-1 {
        fill: none;
      }

      .cls-2 {
        clip-path: url(#clip-path);
      }

      .cls-3 {
        fill: #fff;
      }

      .cls-4 {
        clip-path: url(#clip-path-2);
      }

      .cls-5 {
        clip-path: url(#clip-path-3);
      }

      .cls-6 {
        clip-path: url(#clip-path-4);
      }

      .cls-7 {
        clip-path: url(#clip-path-5);
      }
    </style>
    <clipPath id="clip-path">
      <path id="Path_44" data-name="Path 44" class="cls-1" d="M86.446-152,26-119.166,86.446-86.333,135.9-113.2v37.814h10.99v-43.778Z" transform="translate(-26 152)"/>
    </clipPath>
    <clipPath id="clip-path-2">
      <path id="Path_46" data-name="Path 46" class="cls-1" d="M87.685-127.741v21.889L54.715-87.958v-21.889Z" transform="translate(-54.715 127.741)"/>
    </clipPath>
    <clipPath id="clip-path-3">
      <path id="Path_48" data-name="Path 48" class="cls-1" d="M68.542-109.847v21.889l-32.97-17.894v-21.889Z" transform="translate(-35.572 127.741)"/>
    </clipPath>
    <clipPath id="clip-path-4">
      <path id="Path_50" data-name="Path 50" class="cls-1" d="M87.685-113.443v21.889L54.715-73.66V-95.549Z" transform="translate(-54.715 113.443)"/>
    </clipPath>
    <clipPath id="clip-path-5">
      <path id="Path_52" data-name="Path 52" class="cls-1" d="M68.542-95.549V-73.66L35.572-91.554v-21.889Z" transform="translate(-35.572 113.443)"/>
    </clipPath>
  </defs>
  <g id="Group_104" data-name="Group 104" transform="translate(2793.119 -342.432)">
    <g id="logo">
      <g id="Group_33" data-name="Group 33" class="cls-2">
        <path id="Path_43" data-name="Path 43" class="cls-3" d="M21-57.424H164.856V-157H21Z" transform="translate(-32.482 145.518)"/>
      </g>
      <g id="Group_34" data-name="Group 34" class="cls-4" transform="translate(65.941 55.708)">
        <path id="Path_45" data-name="Path 45" class="cls-3" d="M49.715-69.994h55.935v-62.748H49.715Z" transform="translate(-61.197 121.259)"/>
      </g>
      <g id="Group_35" data-name="Group 35" class="cls-5" transform="translate(21.98 55.708)">
        <path id="Path_47" data-name="Path 47" class="cls-3" d="M30.572-69.994H86.506v-62.748H30.572Z" transform="translate(-42.054 121.259)"/>
      </g>
      <g id="Group_36" data-name="Group 36" class="cls-6" transform="translate(65.941 88.542)">
        <path id="Path_49" data-name="Path 49" class="cls-3" d="M49.715-55.7h55.935v-62.748H49.715Z" transform="translate(-61.197 106.961)"/>
      </g>
      <g id="Group_37" data-name="Group 37" class="cls-7" transform="translate(21.98 88.542)">
        <path id="Path_51" data-name="Path 51" class="cls-3" d="M30.572-55.7H86.506v-62.748H30.572Z" transform="translate(-42.054 106.961)"/>
      </g>
    </g>
  </g>
</svg>
