<svg xmlns="http://www.w3.org/2000/svg" viewBox="3027 641 1253.4 234.5">
  <defs>
    <style>
      .cls-1 {
        fill: #2e2e2e;
      }
    </style>
  </defs>
  <g id="Copy_of_logo_black" data-name="Copy of logo_black" transform="translate(2647 -582)">
    <g id="Group_110" data-name="Group 110" transform="translate(380 1223)">
      <path id="Path_56" data-name="Path 56" class="cls-1" d="M395.6,201.3v-94l-36.6,70H344l-36.6-70v94H279.8V59.3h29.6l42,80.8,42.4-80.8h29.4v142Z"/>
      <path id="Path_57" data-name="Path 57" class="cls-1" d="M511.8,202.3a60.879,60.879,0,0,1-27.4-6.1A68.425,68.425,0,0,1,463.1,180a72.552,72.552,0,0,1-13.7-23.1,76.229,76.229,0,0,1-4.8-26.6,74.8,74.8,0,0,1,19.3-50.2,67.632,67.632,0,0,1,21.5-15.9,62.72,62.72,0,0,1,27-5.9,59.709,59.709,0,0,1,27.4,6.3A68.885,68.885,0,0,1,561,81.1a73.88,73.88,0,0,1,13.6,23.2,75.962,75.962,0,0,1,4.8,26.4,72.915,72.915,0,0,1-5.1,27.1,74.014,74.014,0,0,1-14.1,22.8,67.322,67.322,0,0,1-21.4,15.8A61.3,61.3,0,0,1,511.8,202.3Zm-39.4-72a59.074,59.074,0,0,0,2.7,17.8,48.6,48.6,0,0,0,7.8,15.2,39.926,39.926,0,0,0,12.5,10.6,37.078,37.078,0,0,0,33.7-.1,37.835,37.835,0,0,0,12.3-10.9,49.818,49.818,0,0,0,7.6-15.3,59.949,59.949,0,0,0,2.6-17.3,56.177,56.177,0,0,0-2.8-17.8,51.011,51.011,0,0,0-7.9-15.2,38,38,0,0,0-12.4-10.5,36.867,36.867,0,0,0-33.4.2,38.916,38.916,0,0,0-12.4,10.8A47.385,47.385,0,0,0,475,113,60.469,60.469,0,0,0,472.4,130.3Z"/>
      <path id="Path_58" data-name="Path 58" class="cls-1" d="M628.4,110.3v91H600.8V59.3h21.4l74,93.2v-93h27.6V201.3H701.4Z"/>
      <path id="Path_59" data-name="Path 59" class="cls-1" d="M753.4,201.3V59.3h60.2a40.75,40.75,0,0,1,18.1,4.1A46.175,46.175,0,0,1,846,74.2a51.648,51.648,0,0,1,9.4,15.2,45.323,45.323,0,0,1,3.4,17.1,50.165,50.165,0,0,1-3.2,17.5,46.981,46.981,0,0,1-9,15.1,44.713,44.713,0,0,1-14,10.6,40.254,40.254,0,0,1-18,4H781v47.6H753.4ZM781,129.5h32a15.856,15.856,0,0,0,12.7-6.2q5.1-6.15,5.1-16.8a27.049,27.049,0,0,0-1.6-9.7,24.539,24.539,0,0,0-4.2-7.3,16.714,16.714,0,0,0-6.1-4.5,17.755,17.755,0,0,0-7.1-1.5H781Z"/>
      <path id="Path_60" data-name="Path 60" class="cls-1" d="M877.6,201.3V59.3h27.6V177.1h72.4v24.2Z"/>
      <path id="Path_61" data-name="Path 61" class="cls-1" d="M981,201.3l56-142h22.4l55.8,142H1086l-13-35.4h-49.8l-13,35.4H981Zm67.2-112.2-20.4,57.4H1068Z"/>
      <path id="Path_62" data-name="Path 62" class="cls-1" d="M1158,110.3v91h-27.6V59.3h21.4l74,93.2v-93h27.6V201.3H1231Z"/>
    </g>
    <g id="Group_111" data-name="Group 111" transform="translate(380 1223)">
      <path id="Path_63" data-name="Path 63" class="cls-1" d="M110,0,0,60l110,60,90-49.1V140h20V60Z"/>
      <path id="Path_64" data-name="Path 64" class="cls-1" d="M180,101.8v40l-60,32.7v-40Z"/>
      <path id="Path_65" data-name="Path 65" class="cls-1" d="M100,134.5v40L40,141.8v-40Z"/>
      <path id="Path_66" data-name="Path 66" class="cls-1" d="M180,161.8v40l-60,32.7v-40Z"/>
      <path id="Path_67" data-name="Path 67" class="cls-1" d="M100,194.5v40L40,201.8v-40Z"/>
    </g>
  </g>
</svg>
